PathFileType	4	(X/Y/Z)	/Users/itak/Documents/Research/Walk-IL/dataset/trc/00133_00007.trc
DataRate	CameraRate	NumFrames	NumMarkers	Units	OrigDataRate	OrigDataStartFrame	OrigNumFrames
100.000000	100.000000	4	53	mm	100.000000	457	732
Frame#	Time	RPSI			LPSI			L3			STRN			T10			C7			CLAV			RBAK			LBAK			LSHO			LUPA			LAEL			LAOL			LWTS			LWPS			LFRA			LIFD			LHPS			LHTS			RSHO			RUPA			RAEL			RAOL			RWTS			RWPS			RFRA			RIFD			RHTS			RHPS			RBHD			LFHD			RFHD			LBHD			LHIP			RHIP			RASI			LASI			LKNE			LTHI			LANK			LTIP			LTOE			LMT1			LMT5			LHEE			RKNE			RTHI			RANK			RTIP			RTOE			RMT1			RMT5			RHEE			
		X1	Y1	Z1	X2	Y2	Z2	X3	Y3	Z3	X4	Y4	Z4	X5	Y5	Z5	X6	Y6	Z6	X7	Y7	Z7	X8	Y8	Z8	X9	Y9	Z9	X10	Y10	Z10	X11	Y11	Z11	X12	Y12	Z12	X13	Y13	Z13	X14	Y14	Z14	X15	Y15	Z15	X16	Y16	Z16	X17	Y17	Z17	X18	Y18	Z18	X19	Y19	Z19	X20	Y20	Z20	X21	Y21	Z21	X22	Y22	Z22	X23	Y23	Z23	X24	Y24	Z24	X25	Y25	Z25	X26	Y26	Z26	X27	Y27	Z27	X28	Y28	Z28	X29	Y29	Z29	X30	Y30	Z30	X31	Y31	Z31	X32	Y32	Z32	X33	Y33	Z33	X34	Y34	Z34	X35	Y35	Z35	X36	Y36	Z36	X37	Y37	Z37	X38	Y38	Z38	X39	Y39	Z39	X40	Y40	Z40	X41	Y41	Z41	X42	Y42	Z42	X43	Y43	Z43	X44	Y44	Z44	X45	Y45	Z45	X46	Y46	Z46	X47	Y47	Z47	X48	Y48	Z48	X49	Y49	Z49	X50	Y50	Z50	X51	Y51	Z51	X52	Y52	Z52	X53	Y53	Z53	

458	4.57	739.1495971679688	1102.653564453125	-162.9054565429688	855.7817993164062	1119.695068359375	-229.4564666748047	794.246337890625	1150.11669921875	-200.323486328125	909.5375366210938	1343.38427734375	-2.889448165893555	773.9265747070312	1300.79150390625	-222.9464569091797	804.3988037109375	1592.171508789062	-191.2453308105469	895.965087890625	1479.004638671875	-33.91904449462891	701.2032470703125	1408.185791015625	-194.7484283447266	886.6453247070312	1574.786743164062	-251.5280914306641	989.9829711914062	1560.816650390625	-215.5818023681641	1040.049560546875	1436.861694335938	-283.6833190917969	1070.59912109375	1222.63671875	-313.246337890625	984.7991943359375	1207.352172851562	-328.1698303222656	1115.817749023438	956.4313354492188	-241.2584075927734	1081.892456054688	937.3846435546875	-321.2804565429688	1089.39208984375	1106.76513671875	-318.05615234375	1109.035400390625	760.966064453125	-236.5879516601562	1104.5419921875	861.39208984375	-309.2220153808594	1136.90478515625	867.2013549804688	-247.5013122558594	682.3408203125	1569.134643554688	-46.73165893554688	617.755615234375	1496.818115234375	-30.74931907653809	582.0095825195312	1205.00537109375	-39.17930221557617	662.9646606445312	1201.929931640625	-94.08218383789062	655.169677734375	956.4816284179688	74.7774658203125	589.91943359375	943.4713745117188	22.87493324279785	577.8447265625	1131.3935546875	-12.91499519348145	676.307373046875	761.940185546875	81.04749298095703	659.7100830078125	846.9782104492188	100.6532135009766	601.69189453125	842.5366821289062	55.08157730102539	761.0650634765625	1761.660034179688	-115.7486877441406	933.2734985351562	1814.748046875	13.43955326080322	810.6620483398438	1802.913452148438	51.81350326538086	887.9661254882812	1778.621459960938	-160.9547424316406	1003.393920898438	1043.015380859375	-207.5197601318359	710.5642700195312	994.895751953125	4.569017887115479	791.197265625	1075.355834960938	47.52506256103516	1018.297241210938	1097.219116210938	-90.50617980957031	1078.662231445312	551.7012329101562	-101.3887252807617	1065.169555664062	692.5104370117188	-159.9878692626953	1079.829345703125	30.3085765838623	-182.0961608886719	1088.746215820312	296.0540771484375	-189.6286315917969	1103.660034179688	34.97162246704102	55.1201171875	1046.318603515625	41.41853332519531	-9.5860595703125	1147.430541992188	29.2640552520752	-74.86901092529297	997.9405517578125	33.70861434936523	-225.1837921142578	801.8426513671875	503.3928527832031	12.51086235046387	757.9232788085938	783.3114624023438	21.3257007598877	551.979736328125	188.3050231933594	-338.3109436035156	734.746826171875	403.5899963378906	-61.88008499145508	703.43115234375	41.86986541748047	-266.4849853515625	703.52197265625	77.64350128173828	-329.7218627929688	598.1389770507812	80.09195709228516	-275.6737060546875	566.1787109375	242.0892028808594	-387.7535705566406	
459	4.58	745.2052001953125	1103.301391601562	-159.212890625	862.5830078125	1120.477416992188	-224.0873260498047	800.7813110351562	1151.226928710938	-196.0402069091797	913.0996704101562	1344.18994140625	3.771362781524658	781.253173828125	1302.374877929688	-219.2878265380859	812.2212524414062	1593.434692382812	-185.8910827636719	900.3768310546875	1480.023071289062	-27.08625602722168	708.8519287109375	1409.604370117188	-191.9706268310547	895.755126953125	1576.16552734375	-244.540771484375	998.2575073242188	1561.93896484375	-206.3103332519531	1050.12744140625	1438.21044921875	-273.2362976074219	1082.471801757812	1224.180297851562	-302.2320556640625	997.1978759765625	1208.486694335938	-319.7055358886719	1126.447387695312	958.0028076171875	-229.4870910644531	1095.17626953125	939.0039672851562	-310.5589294433594	1101.814331054688	1108.459106445312	-306.722900390625	1120.449951171875	762.5337524414062	-225.4615020751953	1117.767700195312	863.110595703125	-298.0064392089844	1148.143920898438	868.8699951171875	-235.2832946777344	687.0740966796875	1570.314453125	-44.02026748657227	622.1414184570312	1498.000610351562	-29.61091423034668	586.352783203125	1206.232543945312	-39.4339714050293	668.4384765625	1203.202880859375	-92.54363250732422	656.6635131835938	957.58642578125	75.72196197509766	592.7232055664062	944.5821533203125	22.37303733825684	581.1696166992188	1132.559326171875	-13.57247257232666	677.4866943359375	763.0682373046875	82.74259948730469	660.4830932617188	848.1293334960938	101.7962188720703	603.5197143554688	843.6852416992188	54.82530975341797	767.3699340820312	1762.541015625	-110.7206649780273	937.415771484375	1815.722045898438	21.36089515686035	814.2237548828125	1803.742553710938	57.6824836730957	895.03662109375	1779.656860351562	-153.80029296875	1009.701293945312	1043.549926757812	-200.81640625	714.5993041992188	996.0787353515625	8.323460578918457	794.4270629882812	1076.483032226562	51.79891967773438	1023.271667480469	1097.992309570312	-82.94695281982422	1081.520141601562	551.1036376953125	-98.52262878417969	1069.377197265625	692.574951171875	-155.5197601318359	1079.717407226562	30.44071388244629	-181.98291015625	1090.319458007812	295.9013977050781	-188.1747131347656	1103.896728515625	34.69858932495117	55.45450973510742	1046.3759765625	41.35919570922852	-9.435456275939941	1147.540283203125	29.20246696472168	-74.84427642822266	997.9224853515625	34.14479827880859	-225.1154022216797	811.4561157226562	506.199462890625	27.01286697387695	763.6732788085938	785.3582153320312	29.24253463745117	566.045654296875	194.5365447998047	-329.2861022949219	745.8851928710938	406.5247192382812	-48.60869979858398	711.0914306640625	44.58201599121094	-248.9520416259766	714.2594604492188	79.71336364746094	-312.6524353027344	607.2686157226562	87.31082153320312	-262.0238342285156	583.1856689453125	246.4945068359375	-379.2995300292969	
460	4.59	751.2028198242188	1104.01318359375	-155.5032806396484	869.2362670898438	1121.2119140625	-218.7467803955078	807.22607421875	1152.176635742188	-191.8777313232422	916.5553588867188	1345.017578125	10.33711624145508	788.5066528320312	1303.895385742188	-215.4149627685547	819.8116455078125	1594.664306640625	-180.5460205078125	904.5977172851562	1481.057250976562	-20.37131690979004	716.3270874023438	1410.998291015625	-189.1404113769531	904.544921875	1577.4873046875	-237.5820770263672	1006.194763183594	1563.052490234375	-197.1316833496094	1059.876098632812	1439.510131835938	-262.7739562988281	1094.171997070312	1225.690551757812	-290.91796875	1009.533874511719	1209.568969726562	-310.9801025390625	1136.93017578125	959.52783203125	-217.4863739013672	1108.419677734375	940.6473999023438	-299.5751953125	1114.103149414062	1110.158569335938	-295.0419311523438	1131.660522460938	764.0717163085938	-214.2491912841797	1130.913452148438	864.8341064453125	-286.546875	1159.228637695312	870.4932861328125	-222.8435668945312	691.716064453125	1571.477416992188	-41.30963897705078	626.4462890625	1499.177124023438	-28.47581481933594	590.6533203125	1207.461791992188	-39.79087066650391	673.83837890625	1204.472412109375	-91.05516052246094	658.1248779296875	958.7391357421875	76.60719299316406	595.5991821289062	945.6815795898438	21.75986289978027	584.5431518554688	1133.729370117188	-14.30455112457275	678.7515258789062	764.267578125	84.51001739501953	661.25830078125	849.3479614257812	102.9357604980469	605.4783935546875	844.8278198242188	54.51201248168945	773.5545654296875	1763.428344726562	-105.6132736206055	941.343994140625	1816.55126953125	29.36005210876465	817.5967407226562	1804.465209960938	63.58593368530273	901.9202880859375	1780.677856445312	-146.541015625	1015.741333007812	1043.965698242188	-194.1762390136719	718.45751953125	997.48388671875	11.84208679199219	797.5479125976562	1077.673583984375	56.06391143798828	1028.0361328125	1098.729248046875	-75.47935485839844	1084.115600585938	550.51513671875	-95.60295104980469	1073.275146484375	692.5381469726562	-151.0507354736328	1079.548095703125	30.63998413085938	-181.8364105224609	1091.65869140625	295.7744750976562	-186.7691040039062	1104.151977539062	34.38466644287109	55.80776214599609	1046.409545898438	41.26894378662109	-9.25444507598877	1147.609985351562	29.17312431335449	-74.79717254638672	997.7977905273438	34.52211380004883	-224.9805755615234	820.4710083007812	509.3482360839844	41.37752532958984	769.012451171875	787.6207275390625	37.13217163085938	580.823974609375	199.5336608886719	-319.7203063964844	756.6129760742188	409.5998229980469	-35.44779205322266	719.8306884765625	47.3747444152832	-230.4440460205078	725.7432250976562	81.26128387451172	-294.6642456054688	617.5009765625	94.06294250488281	-247.3824768066406	600.7033081054688	249.3842926025391	-370.4898681640625	
461	4.600000000000001	757.1631469726562	1104.778442382812	-151.7748718261719	875.74267578125	1121.91357421875	-213.4151611328125	813.5996704101562	1152.9873046875	-187.8001251220703	919.9279174804688	1345.860473632812	16.81719589233398	795.7178955078125	1305.333740234375	-211.3629760742188	827.181640625	1595.853393554688	-175.2169036865234	908.6356201171875	1482.072875976562	-13.76967811584473	723.6420288085938	1412.354125976562	-186.2565765380859	913.021240234375	1578.744018554688	-230.6621551513672	1013.802490234375	1564.158081054688	-188.0660095214844	1069.293823242188	1440.773559570312	-252.3414611816406	1105.653198242188	1227.1748046875	-279.3500366210938	1021.752258300781	1210.612915039062	-301.9909973144531	1147.265502929688	961.0189819335938	-205.2703399658203	1121.5712890625	942.3167724609375	-288.3214721679688	1126.208374023438	1111.857421875	-283.047607421875	1142.6796875	765.6080322265625	-202.9279022216797	1143.939331054688	866.5698852539062	-274.8340759277344	1170.154663085938	872.0867919921875	-210.1931457519531	696.282958984375	1572.60400390625	-38.60165023803711	630.6919555664062	1500.335205078125	-27.32304191589355	594.9127807617188	1208.681274414062	-40.19523620605469	679.1468505859375	1205.722534179688	-89.60692596435547	659.5753173828125	959.906982421875	77.43204498291016	598.5292358398438	946.7576904296875	21.0893669128418	587.988525390625	1134.893798828125	-15.04450798034668	680.1350708007812	765.4988403320312	86.26633453369141	662.0919189453125	850.5910034179688	104.0357360839844	607.5864868164062	845.9346923828125	54.15765762329102	779.6153564453125	1764.325317382812	-100.4412841796875	945.052734375	1817.233764648438	37.42596435546875	820.7759399414062	1805.06591796875	69.50988006591797	908.6228637695312	1781.698974609375	-139.1951904296875	1021.580383300781	1044.319702148438	-187.4853820800781	722.1286010742188	999.0693359375	15.11826992034912	800.5432739257812	1078.911376953125	60.31885528564453	1032.610595703125	1099.411376953125	-68.07229614257812	1086.467651367188	549.9443969726562	-92.67245483398438	1076.847412109375	692.4112548828125	-146.6433563232422	1079.341430664062	30.89572143554688	-181.6671447753906	1092.809204101562	295.6814575195312	-185.4039764404297	1104.416015625	34.03649139404297	56.17261123657227	1046.426025390625	41.15710830688477	-9.054361343383789	1147.649047851562	29.16781616210938	-74.73309326171875	997.5757446289062	34.81143188476562	-224.7832336425781	828.8447265625	512.796142578125	55.57793807983398	773.9141235351562	790.0726318359375	44.97909927368164	596.2549438476562	203.1867218017578	-309.5523376464844	766.8695678710938	412.7645263671875	-22.38649749755859	729.6196899414062	50.06336975097656	-211.2996673583984	737.956298828125	82.28983306884766	-276.0437927246094	628.7651977539062	100.0178146362305	-232.0641937255859	618.5913696289062	250.8385772705078	-361.1644287109375	
